<mxfile host="65bd71144e">
    <diagram id="vzXCRhNyl5j2p7qR3Trk" name="Page-1">
        <mxGraphModel dx="1184" dy="431" grid="1" gridSize="10" guides="1" tooltips="1" connect="1" arrows="1" fold="1" page="1" pageScale="1" pageWidth="1920" pageHeight="1200" math="0" shadow="0">
            <root>
                <mxCell id="0"/>
                <mxCell id="1" parent="0"/>
                <mxCell id="0DP9nleaZRQ_pvX_GCyk-1" value="USER" style="swimlane;fontStyle=0;childLayout=stackLayout;horizontal=1;startSize=26;fillColor=none;horizontalStack=0;resizeParent=1;resizeParentMax=0;resizeLast=0;collapsible=1;marginBottom=0;" parent="1" vertex="1">
                    <mxGeometry x="1100" y="270" width="280" height="360" as="geometry"/>
                </mxCell>
                <mxCell id="0DP9nleaZRQ_pvX_GCyk-2" value="+ _id: ObjectId" style="text;strokeColor=none;fillColor=none;align=left;verticalAlign=top;spacingLeft=4;spacingRight=4;overflow=hidden;rotatable=0;points=[[0,0.5],[1,0.5]];portConstraint=eastwest;" parent="0DP9nleaZRQ_pvX_GCyk-1" vertex="1">
                    <mxGeometry y="26" width="280" height="26" as="geometry"/>
                </mxCell>
                <mxCell id="0DP9nleaZRQ_pvX_GCyk-3" value="+ fname: string" style="text;strokeColor=none;fillColor=none;align=left;verticalAlign=top;spacingLeft=4;spacingRight=4;overflow=hidden;rotatable=0;points=[[0,0.5],[1,0.5]];portConstraint=eastwest;" parent="0DP9nleaZRQ_pvX_GCyk-1" vertex="1">
                    <mxGeometry y="52" width="280" height="26" as="geometry"/>
                </mxCell>
                <mxCell id="0DP9nleaZRQ_pvX_GCyk-40" value="+ slug: string" style="text;strokeColor=none;fillColor=none;align=left;verticalAlign=top;spacingLeft=4;spacingRight=4;overflow=hidden;rotatable=0;points=[[0,0.5],[1,0.5]];portConstraint=eastwest;" parent="0DP9nleaZRQ_pvX_GCyk-1" vertex="1">
                    <mxGeometry y="78" width="280" height="26" as="geometry"/>
                </mxCell>
                <mxCell id="0DP9nleaZRQ_pvX_GCyk-19" value="+ email: string" style="text;strokeColor=none;fillColor=none;align=left;verticalAlign=top;spacingLeft=4;spacingRight=4;overflow=hidden;rotatable=0;points=[[0,0.5],[1,0.5]];portConstraint=eastwest;" parent="0DP9nleaZRQ_pvX_GCyk-1" vertex="1">
                    <mxGeometry y="104" width="280" height="26" as="geometry"/>
                </mxCell>
                <mxCell id="0DP9nleaZRQ_pvX_GCyk-20" value="+ phone_num: string" style="text;strokeColor=none;fillColor=none;align=left;verticalAlign=top;spacingLeft=4;spacingRight=4;overflow=hidden;rotatable=0;points=[[0,0.5],[1,0.5]];portConstraint=eastwest;" parent="0DP9nleaZRQ_pvX_GCyk-1" vertex="1">
                    <mxGeometry y="130" width="280" height="26" as="geometry"/>
                </mxCell>
                <mxCell id="0DP9nleaZRQ_pvX_GCyk-4" value="+ passwordResetCodeTimeExpiration: string" style="text;strokeColor=none;fillColor=none;align=left;verticalAlign=top;spacingLeft=4;spacingRight=4;overflow=hidden;rotatable=0;points=[[0,0.5],[1,0.5]];portConstraint=eastwest;" parent="0DP9nleaZRQ_pvX_GCyk-1" vertex="1">
                    <mxGeometry y="156" width="280" height="26" as="geometry"/>
                </mxCell>
                <mxCell id="0DP9nleaZRQ_pvX_GCyk-21" value="+ PassChangeAt: Date" style="text;strokeColor=none;fillColor=none;align=left;verticalAlign=top;spacingLeft=4;spacingRight=4;overflow=hidden;rotatable=0;points=[[0,0.5],[1,0.5]];portConstraint=eastwest;" parent="0DP9nleaZRQ_pvX_GCyk-1" vertex="1">
                    <mxGeometry y="182" width="280" height="26" as="geometry"/>
                </mxCell>
                <mxCell id="0DP9nleaZRQ_pvX_GCyk-22" value="+ PassResetCode: String" style="text;strokeColor=none;fillColor=none;align=left;verticalAlign=top;spacingLeft=4;spacingRight=4;overflow=hidden;rotatable=0;points=[[0,0.5],[1,0.5]];portConstraint=eastwest;" parent="0DP9nleaZRQ_pvX_GCyk-1" vertex="1">
                    <mxGeometry y="208" width="280" height="22" as="geometry"/>
                </mxCell>
                <mxCell id="0DP9nleaZRQ_pvX_GCyk-23" value="+ PassResetIsVerifed: bool" style="text;strokeColor=none;fillColor=none;align=left;verticalAlign=top;spacingLeft=4;spacingRight=4;overflow=hidden;rotatable=0;points=[[0,0.5],[1,0.5]];portConstraint=eastwest;" parent="0DP9nleaZRQ_pvX_GCyk-1" vertex="1">
                    <mxGeometry y="230" width="280" height="26" as="geometry"/>
                </mxCell>
                <mxCell id="0DP9nleaZRQ_pvX_GCyk-24" value="+ role: string" style="text;strokeColor=none;fillColor=none;align=left;verticalAlign=top;spacingLeft=4;spacingRight=4;overflow=hidden;rotatable=0;points=[[0,0.5],[1,0.5]];portConstraint=eastwest;" parent="0DP9nleaZRQ_pvX_GCyk-1" vertex="1">
                    <mxGeometry y="256" width="280" height="26" as="geometry"/>
                </mxCell>
                <mxCell id="0DP9nleaZRQ_pvX_GCyk-25" value="+ address: Array" style="text;strokeColor=none;fillColor=none;align=left;verticalAlign=top;spacingLeft=4;spacingRight=4;overflow=hidden;rotatable=0;points=[[0,0.5],[1,0.5]];portConstraint=eastwest;" parent="0DP9nleaZRQ_pvX_GCyk-1" vertex="1">
                    <mxGeometry y="282" width="280" height="26" as="geometry"/>
                </mxCell>
                <mxCell id="0DP9nleaZRQ_pvX_GCyk-37" value="+ favorites: ObjectId" style="text;strokeColor=none;fillColor=none;align=left;verticalAlign=top;spacingLeft=4;spacingRight=4;overflow=hidden;rotatable=0;points=[[0,0.5],[1,0.5]];portConstraint=eastwest;" parent="0DP9nleaZRQ_pvX_GCyk-1" vertex="1">
                    <mxGeometry y="308" width="280" height="26" as="geometry"/>
                </mxCell>
                <mxCell id="0DP9nleaZRQ_pvX_GCyk-42" value="+ profileImage:string" style="text;strokeColor=none;fillColor=none;align=left;verticalAlign=top;spacingLeft=4;spacingRight=4;overflow=hidden;rotatable=0;points=[[0,0.5],[1,0.5]];portConstraint=eastwest;" parent="0DP9nleaZRQ_pvX_GCyk-1" vertex="1">
                    <mxGeometry y="334" width="280" height="26" as="geometry"/>
                </mxCell>
                <mxCell id="0DP9nleaZRQ_pvX_GCyk-5" value="AGENCY" style="swimlane;fontStyle=0;childLayout=stackLayout;horizontal=1;startSize=26;fillColor=none;horizontalStack=0;resizeParent=1;resizeParentMax=0;resizeLast=0;collapsible=1;marginBottom=0;" parent="1" vertex="1">
                    <mxGeometry x="715" y="230" width="260" height="442" as="geometry"/>
                </mxCell>
                <mxCell id="0DP9nleaZRQ_pvX_GCyk-7" value="+ _id: ObjectId" style="text;strokeColor=none;fillColor=none;align=left;verticalAlign=top;spacingLeft=4;spacingRight=4;overflow=hidden;rotatable=0;points=[[0,0.5],[1,0.5]];portConstraint=eastwest;" parent="0DP9nleaZRQ_pvX_GCyk-5" vertex="1">
                    <mxGeometry y="26" width="260" height="26" as="geometry"/>
                </mxCell>
                <mxCell id="0DP9nleaZRQ_pvX_GCyk-6" value="+ usr_id: ObjectId" style="text;strokeColor=none;fillColor=none;align=left;verticalAlign=top;spacingLeft=4;spacingRight=4;overflow=hidden;rotatable=0;points=[[0,0.5],[1,0.5]];portConstraint=eastwest;" parent="0DP9nleaZRQ_pvX_GCyk-5" vertex="1">
                    <mxGeometry y="52" width="260" height="26" as="geometry"/>
                </mxCell>
                <mxCell id="0DP9nleaZRQ_pvX_GCyk-8" value="+ phoneNumber: string" style="text;strokeColor=none;fillColor=none;align=left;verticalAlign=top;spacingLeft=4;spacingRight=4;overflow=hidden;rotatable=0;points=[[0,0.5],[1,0.5]];portConstraint=eastwest;" parent="0DP9nleaZRQ_pvX_GCyk-5" vertex="1">
                    <mxGeometry y="78" width="260" height="26" as="geometry"/>
                </mxCell>
                <mxCell id="0DP9nleaZRQ_pvX_GCyk-26" value="+ locationOnMap: Geospatial" style="text;strokeColor=none;fillColor=none;align=left;verticalAlign=top;spacingLeft=4;spacingRight=4;overflow=hidden;rotatable=0;points=[[0,0.5],[1,0.5]];portConstraint=eastwest;" parent="0DP9nleaZRQ_pvX_GCyk-5" vertex="1">
                    <mxGeometry y="104" width="260" height="26" as="geometry"/>
                </mxCell>
                <mxCell id="12" value="+ location:string" style="text;strokeColor=none;fillColor=none;align=left;verticalAlign=top;spacingLeft=4;spacingRight=4;overflow=hidden;rotatable=0;points=[[0,0.5],[1,0.5]];portConstraint=eastwest;" parent="0DP9nleaZRQ_pvX_GCyk-5" vertex="1">
                    <mxGeometry y="130" width="260" height="26" as="geometry"/>
                </mxCell>
                <mxCell id="0DP9nleaZRQ_pvX_GCyk-27" value="+ agn_name: string" style="text;strokeColor=none;fillColor=none;align=left;verticalAlign=top;spacingLeft=4;spacingRight=4;overflow=hidden;rotatable=0;points=[[0,0.5],[1,0.5]];portConstraint=eastwest;" parent="0DP9nleaZRQ_pvX_GCyk-5" vertex="1">
                    <mxGeometry y="156" width="260" height="26" as="geometry"/>
                </mxCell>
                <mxCell id="0DP9nleaZRQ_pvX_GCyk-28" value="+ License: number" style="text;strokeColor=none;fillColor=none;align=left;verticalAlign=top;spacingLeft=4;spacingRight=4;overflow=hidden;rotatable=0;points=[[0,0.5],[1,0.5]];portConstraint=eastwest;" parent="0DP9nleaZRQ_pvX_GCyk-5" vertex="1">
                    <mxGeometry y="182" width="260" height="26" as="geometry"/>
                </mxCell>
                <mxCell id="13" value="+ email:string" style="text;strokeColor=none;fillColor=none;align=left;verticalAlign=top;spacingLeft=4;spacingRight=4;overflow=hidden;rotatable=0;points=[[0,0.5],[1,0.5]];portConstraint=eastwest;" parent="0DP9nleaZRQ_pvX_GCyk-5" vertex="1">
                    <mxGeometry y="208" width="260" height="26" as="geometry"/>
                </mxCell>
                <mxCell id="14" value="password:string" style="text;strokeColor=none;fillColor=none;align=left;verticalAlign=top;spacingLeft=4;spacingRight=4;overflow=hidden;rotatable=0;points=[[0,0.5],[1,0.5]];portConstraint=eastwest;" parent="0DP9nleaZRQ_pvX_GCyk-5" vertex="1">
                    <mxGeometry y="234" width="260" height="26" as="geometry"/>
                </mxCell>
                <mxCell id="15" value="+ passwordResetCodeTimeExpiration: string" style="text;strokeColor=none;fillColor=none;align=left;verticalAlign=top;spacingLeft=4;spacingRight=4;overflow=hidden;rotatable=0;points=[[0,0.5],[1,0.5]];portConstraint=eastwest;" parent="0DP9nleaZRQ_pvX_GCyk-5" vertex="1">
                    <mxGeometry y="260" width="260" height="26" as="geometry"/>
                </mxCell>
                <mxCell id="23" value="+ PassChangeAt: Date" style="text;strokeColor=none;fillColor=none;align=left;verticalAlign=top;spacingLeft=4;spacingRight=4;overflow=hidden;rotatable=0;points=[[0,0.5],[1,0.5]];portConstraint=eastwest;" parent="0DP9nleaZRQ_pvX_GCyk-5" vertex="1">
                    <mxGeometry y="286" width="260" height="26" as="geometry"/>
                </mxCell>
                <mxCell id="22" value="+ PassResetCode: String&#10;" style="text;strokeColor=none;fillColor=none;align=left;verticalAlign=top;spacingLeft=4;spacingRight=4;overflow=hidden;rotatable=0;points=[[0,0.5],[1,0.5]];portConstraint=eastwest;" parent="0DP9nleaZRQ_pvX_GCyk-5" vertex="1">
                    <mxGeometry y="312" width="260" height="26" as="geometry"/>
                </mxCell>
                <mxCell id="21" value="+ PassResetIsVerifed: bool" style="text;strokeColor=none;fillColor=none;align=left;verticalAlign=top;spacingLeft=4;spacingRight=4;overflow=hidden;rotatable=0;points=[[0,0.5],[1,0.5]];portConstraint=eastwest;" parent="0DP9nleaZRQ_pvX_GCyk-5" vertex="1">
                    <mxGeometry y="338" width="260" height="26" as="geometry"/>
                </mxCell>
                <mxCell id="20" value="+ isAgency:string" style="text;strokeColor=none;fillColor=none;align=left;verticalAlign=top;spacingLeft=4;spacingRight=4;overflow=hidden;rotatable=0;points=[[0,0.5],[1,0.5]];portConstraint=eastwest;" parent="0DP9nleaZRQ_pvX_GCyk-5" vertex="1">
                    <mxGeometry y="364" width="260" height="26" as="geometry"/>
                </mxCell>
                <mxCell id="26" value="+ agency_image:string" style="text;strokeColor=none;fillColor=none;align=left;verticalAlign=top;spacingLeft=4;spacingRight=4;overflow=hidden;rotatable=0;points=[[0,0.5],[1,0.5]];portConstraint=eastwest;" parent="0DP9nleaZRQ_pvX_GCyk-5" vertex="1">
                    <mxGeometry y="390" width="260" height="26" as="geometry"/>
                </mxCell>
                <mxCell id="25" value="+properties:Array&lt;ObjectId&gt;" style="text;strokeColor=none;fillColor=none;align=left;verticalAlign=top;spacingLeft=4;spacingRight=4;overflow=hidden;rotatable=0;points=[[0,0.5],[1,0.5]];portConstraint=eastwest;" parent="0DP9nleaZRQ_pvX_GCyk-5" vertex="1">
                    <mxGeometry y="416" width="260" height="26" as="geometry"/>
                </mxCell>
                <mxCell id="0DP9nleaZRQ_pvX_GCyk-9" value="PROPERTY" style="swimlane;fontStyle=0;childLayout=stackLayout;horizontal=1;startSize=26;fillColor=none;horizontalStack=0;resizeParent=1;resizeParentMax=0;resizeLast=0;collapsible=1;marginBottom=0;" parent="1" vertex="1">
                    <mxGeometry x="890" y="790" width="300" height="494" as="geometry"/>
                </mxCell>
                <mxCell id="0DP9nleaZRQ_pvX_GCyk-12" value="+ _id: ObjectId" style="text;strokeColor=none;fillColor=none;align=left;verticalAlign=top;spacingLeft=4;spacingRight=4;overflow=hidden;rotatable=0;points=[[0,0.5],[1,0.5]];portConstraint=eastwest;" parent="0DP9nleaZRQ_pvX_GCyk-9" vertex="1">
                    <mxGeometry y="26" width="300" height="26" as="geometry"/>
                </mxCell>
                <mxCell id="0DP9nleaZRQ_pvX_GCyk-10" value="+ usr_id: ObjectId" style="text;strokeColor=none;fillColor=none;align=left;verticalAlign=top;spacingLeft=4;spacingRight=4;overflow=hidden;rotatable=0;points=[[0,0.5],[1,0.5]];portConstraint=eastwest;" parent="0DP9nleaZRQ_pvX_GCyk-9" vertex="1">
                    <mxGeometry y="52" width="300" height="26" as="geometry"/>
                </mxCell>
                <mxCell id="4" value="+ location:string" style="text;strokeColor=none;fillColor=none;align=left;verticalAlign=top;spacingLeft=4;spacingRight=4;overflow=hidden;rotatable=0;points=[[0,0.5],[1,0.5]];portConstraint=eastwest;" parent="0DP9nleaZRQ_pvX_GCyk-9" vertex="1">
                    <mxGeometry y="78" width="300" height="26" as="geometry"/>
                </mxCell>
                <mxCell id="0DP9nleaZRQ_pvX_GCyk-11" value="+ agency: ObjectId" style="text;strokeColor=none;fillColor=none;align=left;verticalAlign=top;spacingLeft=4;spacingRight=4;overflow=hidden;rotatable=0;points=[[0,0.5],[1,0.5]];portConstraint=eastwest;" parent="0DP9nleaZRQ_pvX_GCyk-9" vertex="1">
                    <mxGeometry y="104" width="300" height="26" as="geometry"/>
                </mxCell>
                <mxCell id="0DP9nleaZRQ_pvX_GCyk-29" value="+ locationOnMap: Geospatial" style="text;strokeColor=none;fillColor=none;align=left;verticalAlign=top;spacingLeft=4;spacingRight=4;overflow=hidden;rotatable=0;points=[[0,0.5],[1,0.5]];portConstraint=eastwest;" parent="0DP9nleaZRQ_pvX_GCyk-9" vertex="1">
                    <mxGeometry y="130" width="300" height="26" as="geometry"/>
                </mxCell>
                <mxCell id="0DP9nleaZRQ_pvX_GCyk-30" value="+ price: string" style="text;strokeColor=none;fillColor=none;align=left;verticalAlign=top;spacingLeft=4;spacingRight=4;overflow=hidden;rotatable=0;points=[[0,0.5],[1,0.5]];portConstraint=eastwest;" parent="0DP9nleaZRQ_pvX_GCyk-9" vertex="1">
                    <mxGeometry y="156" width="300" height="26" as="geometry"/>
                </mxCell>
                <mxCell id="0DP9nleaZRQ_pvX_GCyk-45" value="+ area: number" style="text;strokeColor=none;fillColor=none;align=left;verticalAlign=top;spacingLeft=4;spacingRight=4;overflow=hidden;rotatable=0;points=[[0,0.5],[1,0.5]];portConstraint=eastwest;" parent="0DP9nleaZRQ_pvX_GCyk-9" vertex="1">
                    <mxGeometry y="182" width="300" height="26" as="geometry"/>
                </mxCell>
                <mxCell id="0DP9nleaZRQ_pvX_GCyk-31" value="+ height: string" style="text;strokeColor=none;fillColor=none;align=left;verticalAlign=top;spacingLeft=4;spacingRight=4;overflow=hidden;rotatable=0;points=[[0,0.5],[1,0.5]];portConstraint=eastwest;" parent="0DP9nleaZRQ_pvX_GCyk-9" vertex="1">
                    <mxGeometry y="208" width="300" height="26" as="geometry"/>
                </mxCell>
                <mxCell id="0DP9nleaZRQ_pvX_GCyk-32" value="+ room_num: string" style="text;strokeColor=none;fillColor=none;align=left;verticalAlign=top;spacingLeft=4;spacingRight=4;overflow=hidden;rotatable=0;points=[[0,0.5],[1,0.5]];portConstraint=eastwest;" parent="0DP9nleaZRQ_pvX_GCyk-9" vertex="1">
                    <mxGeometry y="234" width="300" height="26" as="geometry"/>
                </mxCell>
                <mxCell id="0DP9nleaZRQ_pvX_GCyk-33" value="+ prop_img: string" style="text;strokeColor=none;fillColor=none;align=left;verticalAlign=top;spacingLeft=4;spacingRight=4;overflow=hidden;rotatable=0;points=[[0,0.5],[1,0.5]];portConstraint=eastwest;" parent="0DP9nleaZRQ_pvX_GCyk-9" vertex="1">
                    <mxGeometry y="260" width="300" height="26" as="geometry"/>
                </mxCell>
                <mxCell id="0DP9nleaZRQ_pvX_GCyk-35" value="+ props_img: Array" style="text;strokeColor=none;fillColor=none;align=left;verticalAlign=top;spacingLeft=4;spacingRight=4;overflow=hidden;rotatable=0;points=[[0,0.5],[1,0.5]];portConstraint=eastwest;" parent="0DP9nleaZRQ_pvX_GCyk-9" vertex="1">
                    <mxGeometry y="286" width="300" height="26" as="geometry"/>
                </mxCell>
                <mxCell id="0DP9nleaZRQ_pvX_GCyk-43" value="+ is_prop_accepted: bool" style="text;strokeColor=none;fillColor=none;align=left;verticalAlign=top;spacingLeft=4;spacingRight=4;overflow=hidden;rotatable=0;points=[[0,0.5],[1,0.5]];portConstraint=eastwest;shadow=0;" parent="0DP9nleaZRQ_pvX_GCyk-9" vertex="1">
                    <mxGeometry y="312" width="300" height="26" as="geometry"/>
                </mxCell>
                <mxCell id="5" value="+ city:string" style="text;strokeColor=none;fillColor=none;align=left;verticalAlign=top;spacingLeft=4;spacingRight=4;overflow=hidden;rotatable=0;points=[[0,0.5],[1,0.5]];portConstraint=eastwest;shadow=0;" parent="0DP9nleaZRQ_pvX_GCyk-9" vertex="1">
                    <mxGeometry y="338" width="300" height="26" as="geometry"/>
                </mxCell>
                <mxCell id="6" value="+ realEstateArea:string" style="text;strokeColor=none;fillColor=none;align=left;verticalAlign=top;spacingLeft=4;spacingRight=4;overflow=hidden;rotatable=0;points=[[0,0.5],[1,0.5]];portConstraint=eastwest;shadow=0;" parent="0DP9nleaZRQ_pvX_GCyk-9" vertex="1">
                    <mxGeometry y="364" width="300" height="26" as="geometry"/>
                </mxCell>
                <mxCell id="8" value="+ propertyNumber:number" style="text;strokeColor=none;fillColor=none;align=left;verticalAlign=top;spacingLeft=4;spacingRight=4;overflow=hidden;rotatable=0;points=[[0,0.5],[1,0.5]];portConstraint=eastwest;shadow=0;" parent="0DP9nleaZRQ_pvX_GCyk-9" vertex="1">
                    <mxGeometry y="390" width="300" height="26" as="geometry"/>
                </mxCell>
                <mxCell id="7" value="+ details:string" style="text;strokeColor=none;fillColor=none;align=left;verticalAlign=top;spacingLeft=4;spacingRight=4;overflow=hidden;rotatable=0;points=[[0,0.5],[1,0.5]];portConstraint=eastwest;shadow=0;" parent="0DP9nleaZRQ_pvX_GCyk-9" vertex="1">
                    <mxGeometry y="416" width="300" height="26" as="geometry"/>
                </mxCell>
                <mxCell id="9" value="+ isSold:boolean" style="text;strokeColor=none;fillColor=none;align=left;verticalAlign=top;spacingLeft=4;spacingRight=4;overflow=hidden;rotatable=0;points=[[0,0.5],[1,0.5]];portConstraint=eastwest;shadow=0;" parent="0DP9nleaZRQ_pvX_GCyk-9" vertex="1">
                    <mxGeometry y="442" width="300" height="26" as="geometry"/>
                </mxCell>
                <mxCell id="10" value="+ isItForRental:boolean" style="text;strokeColor=none;fillColor=none;align=left;verticalAlign=top;spacingLeft=4;spacingRight=4;overflow=hidden;rotatable=0;points=[[0,0.5],[1,0.5]];portConstraint=eastwest;shadow=0;" parent="0DP9nleaZRQ_pvX_GCyk-9" vertex="1">
                    <mxGeometry y="468" width="300" height="26" as="geometry"/>
                </mxCell>
                <mxCell id="0DP9nleaZRQ_pvX_GCyk-16" style="edgeStyle=orthogonalEdgeStyle;rounded=0;orthogonalLoop=1;jettySize=auto;html=1;" parent="1" edge="1">
                    <mxGeometry relative="1" as="geometry">
                        <mxPoint x="1190" y="790" as="sourcePoint"/>
                        <mxPoint x="1280" y="636" as="targetPoint"/>
                        <Array as="points">
                            <mxPoint x="1280" y="755"/>
                            <mxPoint x="1280" y="636"/>
                        </Array>
                    </mxGeometry>
                </mxCell>
                <mxCell id="0DP9nleaZRQ_pvX_GCyk-18" style="edgeStyle=orthogonalEdgeStyle;rounded=0;orthogonalLoop=1;jettySize=auto;html=1;exitX=0;exitY=0.5;exitDx=0;exitDy=0;" parent="1" source="0DP9nleaZRQ_pvX_GCyk-11" edge="1">
                    <mxGeometry relative="1" as="geometry">
                        <mxPoint x="800" y="670" as="targetPoint"/>
                        <Array as="points">
                            <mxPoint x="800" y="907"/>
                            <mxPoint x="800" y="675"/>
                        </Array>
                    </mxGeometry>
                </mxCell>
                <mxCell id="0DP9nleaZRQ_pvX_GCyk-44" style="edgeStyle=orthogonalEdgeStyle;rounded=0;orthogonalLoop=1;jettySize=auto;html=1;exitX=1;exitY=0.5;exitDx=0;exitDy=0;entryX=0;entryY=0.5;entryDx=0;entryDy=0;" parent="1" source="0DP9nleaZRQ_pvX_GCyk-6" target="0DP9nleaZRQ_pvX_GCyk-2" edge="1">
                    <mxGeometry relative="1" as="geometry">
                        <Array as="points">
                            <mxPoint x="975" y="320"/>
                            <mxPoint x="1000" y="320"/>
                            <mxPoint x="1000" y="310"/>
                            <mxPoint x="1015" y="310"/>
                            <mxPoint x="1015" y="309"/>
                        </Array>
                    </mxGeometry>
                </mxCell>
                <mxCell id="0DP9nleaZRQ_pvX_GCyk-46" value="&lt;font size=&quot;1&quot;&gt;&lt;b style=&quot;font-size: 68px&quot;&gt;Data Modeling - 5th Year Project&lt;/b&gt;&lt;/font&gt;" style="text;html=1;strokeColor=none;fillColor=none;align=left;verticalAlign=middle;whiteSpace=wrap;rounded=0;" parent="1" vertex="1">
                    <mxGeometry x="190" y="90" width="1220" height="20" as="geometry"/>
                </mxCell>
            </root>
        </mxGraphModel>
    </diagram>
</mxfile>